#!OML:ASF H:\Punching\Project 1\Capture day 1\Session 1\female.ASF
:FULLY-SPECIFIED
:DEGREES
2264
root 0.270422 15.7166 4.17243 -35.5837 33.1019 -20.2207
lowerback 13.0473 -4.95783 -4.6608
upperback 6.22958 -6.91977 8.08045
thorax 0.98902 -3.79712 12.1602
lowerneck -7.09997 -1.48944 7.84407
upperneck 36.8829 -1.51262 -5.9036
head 13.4775 -0.19342 -3.93574
rclavicle -4.07012e-014 1.43125e-014
rhumerus -22.6077 -9.2472 -34.1441
rradius 122.627
rwrist -20.2997
rhand -31.8379 3.14056
rfingers 7.12502
rthumb -5.0922 -26.7783
lclavicle -4.07012e-014 1.43125e-014
lhumerus 12.8852 -29.4078 85.4996
lradius 124.276
lwrist -0.159651
lhand -30.2433 2.09197
lfingers 7.12502
lthumb -3.55243 32.0421
rfemur -112.335 -19.4789 -4.25836
rtibia 42.7128
rfoot 6.55582 -22.5284
rtoes -28.5286
lfemur 13.7183 -10.4768 -15.5111
ltibia 31.0788
lfoot -7.47549 -6.66332
ltoes 20.1241
2265
root 0.278701 15.7121 4.18144 -35.6353 33.4772 -19.9863
lowerback 13.1078 -4.91563 -4.80385
upperback 6.37486 -6.88656 7.82221
thorax 1.08504 -3.78653 11.9447
lowerneck -7.17498 -1.56296 7.92056
upperneck 36.9108 -1.71505 -5.69766
head 13.493 -0.245577 -3.89336
rclavicle -4.03036e-014 7.79236e-014
rhumerus -21.7965 -9.44695 -34.2983
rradius 122.323
rwrist -20.7352
rhand -31.9426 3.03661
rfingers 7.12502
rthumb -5.19334 -26.8798
lclavicle -4.03036e-014 7.79236e-014
lhumerus 12.7144 -29.6091 85.2642
lradius 124.438
lwrist -0.196059
lhand -30.1321 2.09537
lfingers 7.12502
lthumb -3.44499 32.0473
rfemur -108.826 -20.5648 -10.9968
rtibia 38.2349
rfoot 4.40391 -29.7089
rtoes -25.2491
lfemur 14.231 -10.4551 -15.9663
ltibia 30.5022
lfoot -7.53627 -6.46295
ltoes 20.4202
2266
root 0.286969 15.7049 4.19106 -35.6286 33.8698 -19.8318
lowerback 13.0506 -4.90173 -4.8704
upperback 6.4846 -6.88024 7.57909
thorax 1.20441 -3.78708 11.6923
lowerneck -7.24956 -1.63363 7.98256
upperneck 36.9566 -1.91433 -5.47807
head 13.5179 -0.295552 -3.84333
rclavicle -3.39425e-014 4.65156e-014
rhumerus -20.9779 -9.59762 -34.4605
rradius 122.053
rwrist -21.1692
rhand -32.0218 3.00626
rfingers 7.12502
rthumb -5.26978 -26.9082
lclavicle -3.39425e-014 4.65156e-014
lhumerus 12.5623 -29.8106 85.0257
lradius 124.581
lwrist -0.175554
lhand -30.0013 2.15152
lfingers 7.12502
lthumb -3.31872 32.1054
rfemur -105.253 -21.4752 -18.308
rtibia 35.0017
rfoot 1.4204 -37.1108
rtoes -21.6093
lfemur 14.6128 -10.3952 -16.3049
ltibia 29.9532
lfoot -7.70591 -6.33265
ltoes 20.8665
2267
root 0.294866 15.6941 4.20307 -35.5738 34.2755 -19.7754
lowerback 12.8849 -4.91501 -4.86474
upperback 6.55054 -6.89946 7.36662
thorax 1.33548 -3.79771 11.4251
lowerneck -7.3121 -1.70672 8.01104
upperneck 37.0142 -2.11157 -5.24937
head 13.5469 -0.34708 -3.78364
rclavicle 3.8117e-014 4.6118e-014
rhumerus -20.1725 -9.69308 -34.5946
rradius 121.834
rwrist -21.5666
rhand -32.067 3.04108
rfingers 7.12502
rthumb -5.31338 -26.8723
lclavicle 3.8117e-014 4.6118e-014
lhumerus 12.4226 -30.0029 84.8083
lradius 124.695
lwrist -0.0829951
lhand -29.8365 2.2531
lfingers 7.12502
lthumb -3.15952 32.2094
rfemur -102.354 -22.1606 -24.4789
rtibia 33.1236
rfoot -1.9971 -42.9132
rtoes -18.2256
lfemur 14.8331 -10.3197 -16.5115
ltibia 29.4984
lfoot -8.00253 -6.28562
ltoes 21.4539
2268
root 0.301871 15.6798 4.21773 -35.5086 34.6786 -19.8386
lowerback 12.65 -4.95014 -4.77863
upperback 6.57819 -6.93655 7.1989
thorax 1.46229 -3.81399 11.1579
lowerneck -7.36447 -1.78773 7.98915
upperneck 37.0645 -2.3107 -5.01462
head 13.5714 -0.4054 -3.7122
rclavicle 5.62064e-014 3.04141e-014
rhumerus -19.3894 -9.74104 -34.6795
rradius 121.672
rwrist -21.8776
rhand -32.1094 3.21379
rfingers 7.12502
rthumb -5.3544 -26.6986
lclavicle 5.62064e-014 3.04141e-014
lhumerus 12.311 -30.1812 84.6215
lradius 124.768
lwrist 0.0785752
lhand -29.6556 2.3469
lfingers 7.12502
lthumb -2.98486 32.3058
rfemur -101.05 -22.8093 -27.3251
rtibia 32.5508
rfoot -4.03352 -45.2903
rtoes -16.0835
lfemur 14.8886 -10.2543 -16.5702
ltibia 29.1971
lfoot -8.42255 -6.33702
ltoes 22.1906
2269
root 0.307875 15.6621 4.23497 -35.4498 35.0651 -20.012
lowerback 12.3712 -4.99426 -4.62136
upperback 6.57498 -6.97643 7.07933
thorax 1.57748 -3.82854 10.9011
lowerneck -7.41511 -1.88198 7.91204
upperneck 37.1099 -2.51859 -4.7756
head 13.5939 -0.474402 -3.63006
rclavicle -1.12388e-013 -8.46823e-014
rhumerus -18.6483 -9.75261 -34.6926
rradius 121.568
rwrist -22.0542
rhand -32.1429 3.46462
rfingers 7.12502
rthumb -5.3867 -26.4469
lclavicle -1.12388e-013 -8.46823e-014
lhumerus 12.2361 -30.3534 84.4718
lradius 124.808
lwrist 0.306091
lhand -29.4445 2.43762
lfingers 7.12502
lthumb -2.78102 32.3992
rfemur -101.732 -23.5818 -26.0121
rtibia 33.1151
rfoot -3.07659 -43.9413
rtoes -15.4028
lfemur 14.7799 -10.2115 -16.4973
ltibia 29.0927
lfoot -8.95039 -6.48264
ltoes 22.9464
2270
root 0.312771 15.6415 4.25398 -35.4199 35.4209 -20.2784
lowerback 12.0829 -5.03801 -4.40897
upperback 6.55811 -7.00959 7.01231
thorax 1.68199 -3.83793 10.6714
lowerneck -7.47753 -1.9908 7.77411
upperneck 37.1391 -2.73361 -4.54361
head 13.6123 -0.556208 -3.54055
rclavicle -3.7123e-014 8.94531e-015
rhumerus -17.9331 -9.74097 -34.6298
rradius 121.515
rwrist -22.0641
rhand -32.1721 3.75635
rfingers 7.12502
rthumb -5.41486 -26.1545
lclavicle -3.7123e-014 8.94531e-015
lhumerus 12.209 -30.5098 84.3663
lradius 124.812
lwrist 0.567083
lhand -29.217 2.47841
lfingers 7.12502
lthumb -2.56133 32.4428
rfemur -103.985 -24.318 -21.5841
rtibia 34.618
rfoot -0.0896655 -40.0681
rtoes -16.4147
lfemur 14.5281 -10.1967 -16.3149
ltibia 29.2081
lfoot -9.55481 -6.70791
ltoes 23.6937
2271
root 0.316886 15.6189 4.27359 -35.4296 35.7312 -20.6088
lowerback 11.8261 -5.07347 -4.15495
upperback 6.53251 -7.02754 6.99373
thorax 1.75871 -3.83772 10.4754
lowerneck -7.55091 -2.11083 7.58244
upperneck 37.1559 -2.94821 -4.32942
head 13.6283 -0.647798 -3.4486
rclavicle -7.33143e-014 1.0138e-014
rhumerus -17.2423 -9.69938 -34.4894
rradius 121.502
rwrist -21.9115
rhand -32.1946 4.05596
rfingers 7.12502
rthumb -5.43659 -25.8543
lclavicle -7.33143e-014 1.0138e-014
lhumerus 12.2128 -30.649 84.3157
lradius 124.786
lwrist 0.811077
lhand -29.0035 2.4926
lfingers 7.12502
lthumb -2.35506 32.4593
rfemur -107.071 -24.7793 -15.68
rtibia 36.8994
rfoot 3.24481 -35.0918
rtoes -18.4925
lfemur 14.1654 -10.2042 -16.054
ltibia 29.5371
lfoot -10.1942 -6.9902
ltoes 24.3933
2272
root 0.320729 15.5948 4.29232 -35.4581 35.9998 -20.9551
lowerback 11.6044 -5.09589 -3.89124
upperback 6.50783 -7.02776 7.01355
thorax 1.81844 -3.82843 10.3201
lowerneck -7.6475 -2.23695 7.34757
upperneck 37.1624 -3.155 -4.14233
head 13.646 -0.745687 -3.35945
rclavicle -9.02358e-014 5.1684e-015
rhumerus -16.5491 -9.64288 -34.2935
rradius 121.52
rwrist -21.6302
rhand -32.131 4.18337
rfingers 7.12502
rthumb -5.37526 -25.7285
lclavicle -9.02358e-014 5.1684e-015
lhumerus 12.2437 -30.7654 84.3238
lradius 124.726
lwrist 0.964935
lhand -28.831 2.47425
lfingers 7.12502
lthumb -2.18847 32.4428
rfemur -110.324 -24.9062 -9.66306
rtibia 39.8453
rfoot 5.92972 -30.0983
rtoes -20.9407
lfemur 13.7131 -10.2243 -15.7683
ltibia 30.048
lfoot -10.8308 -7.28433
ltoes 24.9924
2273
root 0.324733 15.5704 4.30868 -35.4848 36.2341 -21.2666
lowerback 11.4249 -5.10844 -3.6498
upperback 6.48916 -7.01796 7.05246
thorax 1.86612 -3.81514 10.2032
lowerneck -7.74711 -2.35862 7.09636
upperneck 37.1569 -3.33921 -3.99078
head 13.6604 -0.84091 -3.27885
rclavicle 5.80079e-014 3.76697e-014
rhumerus -15.8468 -9.55703 -34.0682
rradius 121.562
rwrist -21.2588
rhand -32.0742 4.2887
rfingers 7.12502
rthumb -5.32041 -25.6245
lclavicle 5.80079e-014 3.76697e-014
lhumerus 12.2764 -30.8506 84.3858
lradius 124.636
lwrist 0.978185
lhand -28.7248 2.42376
lfingers 7.12502
lthumb -2.08593 32.3933
rfemur -113.392 -24.7732 -4.1778
rtibia 43.3687
rfoot 7.83547 -25.6043
rtoes -23.1433
lfemur 13.2094 -10.2446 -15.5138
ltibia 30.689
lfoot -11.4267 -7.55771
ltoes 25.4817
2274
root 0.329245 15.5464 4.32162 -35.4913 36.4381 -21.5127
lowerback 11.2906 -5.10752 -3.44663
upperback 6.47766 -6.99454 7.09857
thorax 1.90085 -3.79635 10.1207
lowerneck -7.86652 -2.47233 6.83939
upperneck 37.1633 -3.50295 -3.86479
head 13.6863 -0.930706 -3.20631
rclavicle -2.01642e-014 -3.97569e-016
rhumerus -15.1375 -9.45112 -33.8404
rradius 121.619
rwrist -20.842
rhand -32.0355 4.38508
rfingers 7.12502
rthumb -5.28298 -25.5291
lclavicle -2.01642e-014 -3.97569e-016
lhumerus 12.2969 -30.9144 84.5009
lradius 124.52
lwrist 0.817481
lhand -28.6891 2.34297
lfingers 7.12502
lthumb -2.05149 32.3128
rfemur -116.109 -24.49 0.524549
rtibia 47.3756
rfoot 8.99179 -21.7667
rtoes -24.9275
lfemur 12.6896 -10.2591 -15.324
ltibia 31.4006
lfoot -11.9611 -7.78677
ltoes 25.8715
